<svg width="583" height="863" viewBox="0 0 583 863" fill="none" xmlns="http://www.w3.org/2000/svg">
<path opacity="0.8" fill-rule="evenodd" clip-rule="evenodd" d="M401.516 578.504C347.826 666.71 367.739 809.735 273.657 852.33C180.278 894.608 84.9047 793.981 -13.8977 766.582C-109.884 739.964 -222.837 761.548 -296.299 694.274C-373.164 623.886 -404.825 513.255 -404.308 409.063C-403.81 308.908 -354.288 217.33 -293.535 137.719C-236.99 63.6196 -165.791 -8.61766 -73.8364 -23.9986C12.189 -38.3878 81.1448 45.3159 167.012 60.6841C264.564 78.1436 375.311 14.6387 456.846 70.9808C541.955 129.793 592.486 244.141 581.278 346.948C570.421 446.531 453.596 492.943 401.516 578.504Z" fill="#FFF7EB"/>
</svg>
